<?xml version="1.0" encoding="UTF-8"?>
<svg xmlns="http://www.w3.org/2000/svg" version="1.1" viewBox="0 0 207 40">
  <defs>
    <style>
      .cls-1 {
        fill: #ff010f;
      }
    </style>
  </defs>
  <!-- Generator: Adobe Illustrator 28.6.0, SVG Export Plug-In . SVG Version: 1.2.0 Build 709)  -->
  <g>
    <g id="Layer_1">
      <g>
        <g>
          <path class="cls-1" d="M57.9,37.1c-2.9-1.7-6.2-3.4-9.9-5.1-7.8-3.6-15.3-6.4-22.7-8.4,2,.2,3.8.3,5.3.3s3.2,0,4.7-.3c1.5-.2,2.8-.4,3.8-.7,1.1-.3,2.1-.6,3-1,.9-.4,1.7-.8,2.3-1.2.6-.4,1.1-.8,1.6-1.2,1.3-1.1,2.2-2.3,2.8-3.6s.8-2.8.7-4.2c-.1-1.4-.6-2.7-1.3-3.9-.8-1.2-1.8-2.2-3.1-3.1-1.8-1.1-3.8-1.8-6.1-2-2.3-.2-4.8,0-7.4.8,0,0-.2,0-.4.1s-.3,0-.4.1c.5-.7.8-1.1,1.1-1.3.1,0,.3,0,.4,0,0,0,.2,0,.2-.1,0,0,0-.1,0-.2-.1-.2-.4-.3-.7-.3-.4,0-.9.4-1.5,1.2,0,0-.1.2-.3.4-.2.2-.3.4-.4.6-4,1.4-7.5,3.2-10.5,5.3-1.8,1.3-3.1,2.6-3.8,3.8-.8,1.2-1,2.4-.7,3.4.6,1.9,3,3.3,7.3,4.1-.2.5-.4,1.1-.7,1.8-.2,0-.5,0-.8-.1-.4,0-.6-.1-.8-.1,0,0-.2,0-.4,0s-.3,0-.4,0c0,0-.2,0-.3,0-.1,0-.2,0-.2.1,0,0,0,.1,0,.2s.1.1.2.1c0,0,.2,0,.4,0,.2,0,.3,0,.4,0,.1,0,.7.1,1.6.3-1.5,4.1-2.3,6.9-2.5,8.5,0,.5,0,.9,0,1.1s.3.4.5.4c.1,0,.2,0,.3,0s.2,0,.2-.1c0-.1,0-.2-.2-.3-.3-.4,0-1.9.7-4.4.5-1.6,1-3.3,1.7-5,2.5.6,5,1.3,7.6,2.1,2.6.8,5,1.6,7.3,2.5,2.3.9,4.2,1.7,5.9,2.4,1.7.7,3.3,1.4,4.8,2.1,3.8,1.8,7.1,3.4,9.9,5.1,2.3,1.4,3.5,2.2,3.8,2.6,0,0,0,.1,0,.2,0,.1.2.2.4.2h.1c.2,0,.3-.2.3-.3,0-.4-1.3-1.4-3.9-2.9ZM15.4,16.5c-.3-1,0-2,.7-3.2.8-1.2,2-2.4,3.7-3.6,2.6-1.9,5.8-3.6,9.4-4.9,0,.1-.2.3-.3.6-.1.2-.2.4-.3.5-1.3,2.4-2.7,5.3-4.2,8.7-.9,2-1.6,3.9-2.3,5.6-3.9-.7-6.1-1.9-6.7-3.6ZM22.4,21.6c.2-.4.3-.7.3-.8,1.2.2,2.4.3,3.4.4.1,0,.2,0,.3,0,.1,0,.2,0,.2-.1s0-.1-.1-.2-.2,0-.3,0c-1.4-.1-2.5-.2-3.4-.4,0,0,.1-.3.2-.6.1-.3.2-.5.3-.7,1.8-4.4,3.4-8.1,5.1-11.2.9-1.8,1.5-2.9,1.9-3.5.1,0,.4-.1.7-.2.4-.1.6-.2.8-.3,2.4-.7,4.7-1,6.8-.8s4,.8,5.7,1.9c1.2.8,2.1,1.7,2.9,2.9s1.2,2.4,1.4,3.6c.2,1.3,0,2.6-.6,4-.6,1.4-1.5,2.6-2.7,3.7-.6.5-1.3,1-2.1,1.5-.8.5-1.9.9-3.2,1.4-1.4.5-2.9.8-4.5,1s-3.6.3-6,.3c-2.4,0-4.9-.3-7.6-.7,0-.2.2-.6.4-1Z"/>
          <path class="cls-1" d="M46.1,22.8c.1-.3.4-.6.7-1s.8-.8,1.3-1.3c.1-.1.1-.3-.1-.3-.1,0-.2,0-.3,0s-.2,0-.3.1c-.6.6-1.1,1.1-1.5,1.6-.4.5-.6.9-.8,1.3-.1.3-.2.6-.1.9,0,.2.2.4.4.5.2.1.5.2.8.2s.3,0,.5,0c.4,0,.7-.3,1-.5.3-.3.6-.6.9-1.1s.5-1,.6-1.7c0-.6,0-1.8-.2-2.6,0,0,0-.1-.1-.1,0,0-.2,0-.3,0s-.2,0-.3,0c0,0-.1.1-.1.2.1.8.2,1.9.2,2.5,0,.6-.2,1.1-.5,1.5s-.5.7-.8.9-.5.4-.8.4c-.2,0-.3,0-.3,0,0,0-.1-.1-.2-.2,0-.1,0-.3,0-.5,0-.2.1-.4.3-.7Z"/>
          <path class="cls-1" d="M111.1,19.4c0,0-.1,0-.2-.1s-.2,0-.3,0c-.3,0-.7.2-1.2.4-.5.2-1,.3-1.4.4s-.8.3-1.2.4c-.7.2-1.3.4-1.6.5-.3.1-.8.3-1.5.5s-1.2.4-1.6.5c-.4.1-.8.2-1.4.4s-1,.2-1.3.3-.7.1-1.1.2-.7,0-.9,0c-.2,0-.4,0-.6-.2-.8-.4-.5-1.6,1-3.6.8-.7,1.1-1.1.8-1.3,0,0-.2,0-.4,0s-.3,0-.3.1c0,0-.2.2-.4.5-.2.2-.3.4-.4.6-1.3,1.1-2.7,1.9-4,2.3-.7.3-1.3.4-1.7.3,0-.3.4-.7,1.2-1.3.9-.8,1.7-1.2,2.3-1.3,0,0,.2,0,.3,0,.1,0,.2,0,.3.2,0,0,.1,0,.2.1s.2,0,.3,0c0,0,.2,0,.2-.1,0,0,0-.1,0-.2-.3-.4-.7-.6-1.4-.5-.5,0-1.1.3-1.8.7s-1.2.8-1.7,1.3c-.4.4-.6.7-.7.9-.3.4-.7.8-1.1,1.3-.6.7-1.2,1.4-1.8,2-2.4,2.6-4.1,4-4.9,4.2-.3-.7.7-3.4,3-8.2,0,0,0,0,0,0,0,0,0-.1,0-.2.3-.6.6-1.2.9-1.8.7-1.5,1.5-3.2,2.4-5,8.4-.3,13.2-.4,14.6-.2.1,0,.2,0,.3,0,.1,0,.2,0,.2-.1,0,0,0-.1,0-.2,0,0-.2-.1-.3-.1-1.4-.2-6.2-.1-14.5.2.3-.7.7-1.3,1-2s.6-1.2.8-1.5c.2-.3.2-.5.2-.5,0,0,0-.1,0-.2,0,0-.1-.1-.2-.1h0c-.3,0-.4,0-.5.2,0,0-.7,1.4-2.1,4.2-2.6,0-5.4.2-8.5.3-3.1.1-5.6.2-7.5.3-2,0-3,.1-3.1.1s-.2,0-.3,0-.1.1-.1.2,0,.1.1.1.2,0,.3,0h0s.9,0,2.7-.1,4.3-.2,7.4-.3c3.1-.1,6-.2,8.6-.4-.3.6-.7,1.5-1.3,2.7s-1,2-1.2,2.4c-.3.6-.5,1.1-.8,1.7-.2,0-.5,0-.7.1-.4,0-.7.2-1.1.4s-.6.3-.8.4c-.2.1-.5.3-.8.5-.9.5-1.5.8-2.1,1,0,0,0-.2.1-.3,0-.1.1-.3.3-.5.1-.2.2-.3.2-.4.2-.3.3-.6.4-.8s.2-.4.3-.6c0-.2,0-.4,0-.5,0-.1-.1-.3-.2-.4-.2-.1-.4-.2-.8-.2-1.2,0-2.1,0-2.9-.2.9-.9,1.5-1.5,1.7-1.8.4-.7.4-1.1,0-1.2-.4-.2-.9-.1-1.6.2-.7.3-1.2.7-1.7,1.2-.5.5-.6.9-.3,1.3.1.2.4.4.8.6,0,0-.2.1-.2.2-.7.7-1.5,1.2-2.3,1.6-1.1.4-2.2.9-3.3,1.3-1.7.6-3.4,1.2-5.1,1.6-1.7.4-2.8.6-3.4.4-.3-.1-.5-.3-.5-.7,0-.4.2-.9.6-1.5,1-.5,2.1-1,3.2-1.7,2.2-1.3,2.9-2.2,2.2-2.8-.3-.2-.6-.3-1-.2-.7.1-1.6.6-2.6,1.6-.5.4-1,.9-1.4,1.4,0,0,0,0,0,0-1.5.9-3.2,1.5-5.1,2.1.4-.6.7-1.1.7-1.6,0-.5-.2-.8-.6-1.1-1-.4-2.7.1-5.1,1.6.7-1.8,1.7-3.8,2.8-6,.7-1.5,1.5-3.1,2.4-4.7.9-1.7,1.6-3,2.1-3.9.5-.9.8-1.4.8-1.4,0,0,0-.1,0-.2,0,0-.1-.1-.2-.1-.1,0-.2,0-.3,0-.1,0-.2,0-.2.1,0,0-.2.5-.7,1.4s-1.2,2.2-2,3.9c-.9,1.7-1.7,3.2-2.4,4.7-1.4,2.9-2.4,5.2-3.2,7.1h0c0,.2-.1.4-.3.8-.1.4-.2.6-.3.8-.2,0-.4.2-.4.3s0,.3.2.3c-.3,1.1-.3,1.7,0,2,.1.1.3.2.5.2h.1c.2,0,.4,0,.4-.2,0-.1,0-.2-.2-.3-.2-.2-.2-.7,0-1.5,0,0,.4.1.8.2.7.2,1.5.2,2.3,0,.8-.3,1.6-.7,2.3-1.4,0,0,0,0,.1,0,0,0,0,0,.1,0,1.8-.4,3.4-1,4.8-1.7,0,.1-.2.3-.3.4h0c-.3.5-.5,1-.6,1.5-.1.7.2,1.2.9,1.4.3,0,.6.1,1,.1,1.5,0,3.9-.6,7.3-1.8,2-.7,5.5-1.9,7.1-3.6.9.2,2,.2,3.3.2h.1c0,0,0,.1,0,.2s0,.2,0,.4c0,0-.2.5-.7,1.2-.2.3-.3.5-.4.7,0,.1-.2.3-.2.5,0,.2,0,.3,0,.4,0,0,.1.2.2.2,0,0,.2,0,.5,0s.4,0,.5,0c.3,0,.6-.2.9-.3.3-.1.5-.3.7-.3s.4-.2.8-.5c.4-.3.8-.5,1-.6s.6-.3,1.1-.5c.2,0,.3-.1.5-.1-.8,1.6-1.4,3.2-2,4.7-.4,1-.6,1.7-.7,2.3-.1.6-.1.9,0,1.1s.2.3.3.4c.1,0,.3,0,.5,0h.2c.1,0,.2,0,.3,0s.3-.1.6-.3c.3-.2.6-.4,1-.7.4-.3.9-.7,1.5-1.3.6-.6,1.3-1.3,2.1-2.1.6-.6,1.2-1.3,1.8-2,.3-.3.4-.6.6-.8.7.2,1.5.1,2.4-.2,1-.4,1.9-.8,2.8-1.4-.4.7-.6,1.3-.6,1.8,0,.4.2.8.7,1,.4.2.9.3,1.5.3s1.6-.1,2.7-.4c1.1-.3,2.1-.5,3-.8s2.2-.7,3.9-1.2c1-.3,2.2-.7,3.7-1.1,0,0,.2,0,.2-.1s0-.1,0-.2ZM51.9,24.1c-.6-.2-.9-.3-1-.3h0c.3-.1.6-.2,1.1-.2,1.2-.2,2.3-.3,3.1-.5-1.2.9-2.2,1.3-3.2,1ZM56.7,20.8c-.2.5-.5,1.1-1,1.6-1,.2-2.3.5-4,.7,0,0-.2,0-.4,0s-.3,0-.3,0c0-.1,0-.3.2-.5s.2-.4.2-.5c0,0,0,0,0,0s0,0,0,0c.7-.5,1.4-.8,2-1.2.6-.3,1.1-.5,1.4-.7.3-.1.6-.2.9-.3.3,0,.4,0,.5,0,0,0,.1,0,.2,0,.3,0,.3.4.2.9ZM64.7,18.5c.3-.2.6-.4.8-.5s.4-.2.5-.3c.1,0,.2,0,.3,0h0c.3.3,0,.7-.8,1.3s-1.9,1.3-3.2,1.9c.7-.9,1.5-1.7,2.4-2.4ZM76.3,18.6c-.1,0-.2-.1-.4-.2-.3-.4-.1-.8.6-1.4.3-.2.6-.4,1-.6.3-.2.6-.2.7-.2,0,.2,0,.4-.3.7-.2.3-.7.9-1.6,1.8Z"/>
        </g>
        <path class="cls-1" d="M192.5,11c0,0-.2-.1-.3-.1-1.4-.2-6.2-.1-14.5.2.3-.7.7-1.3,1-2s.6-1.2.8-1.5c.2-.3.2-.5.2-.5,0,0,0-.1,0-.2,0,0-.1-.1-.2-.1h0c-.3,0-.4,0-.5.2,0,0-.7,1.4-2.1,4.2-2.6,0-5.4.2-8.5.3-3.1.1-5.6.2-7.5.3-2,0-3,.1-3.1.1s-.2,0-.3,0c0,0-.1.1-.1.2s0,.1.1.1.2,0,.3,0h0s.9,0,2.7-.1,4.3-.2,7.4-.3c3.1-.1,6-.2,8.6-.4-.3.6-.7,1.5-1.3,2.7-.6,1.2-1,2-1.2,2.4-.3.6-.5,1.1-.8,1.7-1.2,0-2.3,0-3.5.5-1.3.4-2.5.9-3.7,1.6.2-2.3.5-3.7.8-4.1.2-.4.5-.7.8-.9.3-.2.6-.3.9-.4.3,0,.5,0,.6.2.4.3.4.7,0,1.3,0,0,0,.1,0,.2s.1.1.2.1c0,0,.2,0,.3,0s.2,0,.2-.1c.6-.8.6-1.4,0-1.8-.4-.3-.8-.4-1.4-.3-.5,0-.9.2-1.4.5s-.8.6-1.1,1.1c-.2.4-.4,1.1-.6,2.2-.3,0-.6.2-1.1.3-.5.2-1,.3-1.4.4-.4.1-.8.3-1.2.4-.7.2-1.3.4-1.6.5-.3.1-.8.3-1.5.5s-1.2.4-1.6.5-.8.2-1.4.4-1,.2-1.3.3-.7.1-1.1.2c-.4,0-.7,0-.9,0-.2,0-.4,0-.6-.2-.8-.4-.5-1.6,1-3.6.8-.7,1.1-1.1.8-1.3,0,0-.2,0-.4,0s-.3,0-.3.1c0,0-.2.2-.4.5-.2.2-.3.4-.4.6-1.3,1.1-2.7,1.9-4,2.3-.7.3-1.3.4-1.7.3,0-.3.4-.7,1.2-1.3.9-.8,1.7-1.2,2.3-1.3,0,0,.2,0,.3,0s.2,0,.3.2c0,0,.1,0,.2.1s.2,0,.3,0c0,0,.2,0,.2-.1s0-.1,0-.2c-.3-.4-.7-.6-1.4-.5-.5,0-1.1.3-1.8.7-.6.4-1.1.8-1.5,1.2,0,0,0,0,0,0,0,0,0,0,0,0,0,0,0,0,0,0-.6.6-2.6,2.6-4.7,4.5-2.4,2.2-5,4.3-7.8,6.3-3.7,2.7-6.9,4.8-9.7,6.2s-5,2.1-6.7,2c-1.3,0-2.2-.6-2.7-1.7-.7-1.6-.7-3.9.2-7,.9-3.1,2.5-6.6,4.9-10.5,2.2-3.6,4.6-7,7.3-10.1,2.7-3.1,5.2-5.4,7.5-7,.9-.6,1.8-1.1,2.6-1.4s1.5-.5,2.1-.4c1.2,0,2.2.4,2.8,1,.8.8,1,1.9.7,3.4-.4,1.8-1.3,3.7-2.9,5.9h0c0,.1,0,.2,0,.2,0,0,.1.1.2.1,0,0,.2,0,.3,0,.1,0,.2,0,.2-.1,0,0,0,0,0,0,.3-.4.6-.8.7-1,.2-.3.5-.9,1-1.8.5-1,.9-1.8,1.1-2.5s.3-1.5.2-2.3c0-.9-.3-1.5-.8-2.1-.8-.8-1.9-1.2-3.5-1.3-1.5,0-3.3.6-5.4,2-2.3,1.6-4.9,3.9-7.6,7-2.7,3.1-5.2,6.5-7.4,10.2-2.3,3.7-3.9,7.1-4.8,10.1-1,3.4-1.2,5.9-.3,7.6.6,1.3,1.8,2,3.5,2.1h.3c3.6,0,9.2-2.8,16.8-8.5,2.8-2.1,5.4-4.2,7.9-6.4,1.5-1.3,2.6-2.3,3.4-3.2,0,0,0,0,0,0,.7.2,1.5.1,2.5-.2s1.9-.8,2.8-1.4c-.4.7-.6,1.3-.6,1.8s.2.8.7,1c.4.2.9.3,1.5.3s1.6-.1,2.7-.4c1.1-.3,2.1-.5,3-.8.9-.3,2.2-.7,3.9-1.2.8-.3,1.9-.6,3.1-1,0,.5-.1,1-.2,1.5,0,0,0,.2,0,.3s0,.2,0,.3c-.2.2-.3.2-.4.3-1.3.9-2.5,1.9-3.5,2.9-1,1-1.6,2-1.9,2.8-.2.4-.2.7-.2,1,0,.3.1.5.2.7,0,.2.3.4.5.5.2.1.4.2.6.3.2,0,.4.1.6.1.3,0,.4,0,.5,0,.4,0,.8,0,1.2-.2.4-.1.7-.4,1-.7.3-.3.5-.7.8-1.1.2-.5.4-.9.5-1.3s.3-1,.4-1.7.2-1.3.3-1.7c0-.4.1-1,.3-1.8,1.3-.8,2.6-1.4,3.9-1.8,1.1-.4,2.2-.5,3.2-.5-.8,1.7-1.5,3.3-2.1,4.8-.4,1-.6,1.7-.7,2.3-.1.6-.1.9,0,1.1s.2.3.3.4c.1,0,.3,0,.5,0h.2c.1,0,.2,0,.3,0,.1,0,.3-.1.6-.3s.6-.4,1-.7.9-.7,1.5-1.3c.6-.6,1.3-1.3,2.1-2.1.6-.6,1.2-1.3,1.8-2,.6-.7,1.1-1.2,1.4-1.6.2-.3.4-.4.4-.5,0,0,0,0,0,0,.2-.2.6-.6,1.1-1.2.9.2,2,.2,3.3.2h.1c0,0,0,.1,0,.2s0,.2,0,.4c0,0-.2.5-.7,1.2-.2.3-.3.5-.4.7,0,.1-.2.3-.2.5,0,.2,0,.3,0,.4s.1.2.2.2c0,0,.2,0,.5,0s.4,0,.5,0c.3,0,.6-.2.9-.3s.5-.3.7-.3.4-.2.8-.5c.4-.3.8-.5,1-.6.3-.1.6-.3,1.1-.5.2,0,.5-.1.7-.2-.3.3-.5.6-.7.8-.4.5-.6.9-.8,1.3-.1.3-.2.6-.1.9,0,.2.2.4.4.5.2.1.5.2.8.2s.3,0,.5,0c.4,0,.7-.3,1-.5.3-.3.6-.6.9-1.1s.5-1,.6-1.7c0-.6,0-1.4-.1-2.2,0,0,0-.1-.1-.1,0,0-.2,0-.3,0s-.2,0-.3,0c0,0-.1.1-.1.2.1.8.2,1.5.1,2.1,0,.6-.2,1.1-.5,1.5-.3.4-.5.7-.8.9-.3.2-.5.4-.8.4-.2,0-.3,0-.3,0,0,0-.1-.1-.2-.2,0-.1,0-.3,0-.5,0-.2.1-.4.3-.7s.4-.6.7-1,.8-.8,1.3-1.3c.1-.1.1-.3-.1-.3-.1,0-.2,0-.3,0s-.2,0-.3.1c0,0-.1.1-.2.2,0,0,0,0,0,0-.4,0-.8,0-1.2.2-.4,0-.7.2-1.1.4s-.6.3-.8.4-.5.3-.8.5c-.9.5-1.5.8-2.1,1,0,0,0-.2.1-.3,0-.1.1-.3.3-.5.1-.2.2-.3.2-.4.2-.3.3-.6.4-.8s.2-.4.3-.6c0-.2,0-.4,0-.5,0-.1-.1-.3-.2-.4-.2-.1-.4-.2-.8-.2-1.2,0-2.1,0-2.9-.2.9-.9,1.5-1.5,1.7-1.8.4-.7.4-1.1,0-1.2-.4-.2-.9-.1-1.6.2-.7.3-1.2.7-1.7,1.2-.5.5-.6.9-.3,1.3.1.2.4.4.8.6-.6.5-.9.9-1.1,1.1,0,0,0,0,0,0,0,0-.2.2-.5.6s-.8,1-1.4,1.7-1.2,1.4-1.8,2c-2.4,2.6-4.1,4-4.9,4.2-.3-.8,1-4.2,3.9-10.3.7-1.5,1.5-3.2,2.4-5,8.4-.3,13.2-.4,14.6-.2.1,0,.2,0,.3,0,.1,0,.2,0,.2-.1s0-.1,0-.2ZM164.7,24.2c-.1.7-.3,1.4-.5,2.1-.2.7-.5,1.3-.8,1.8-.3.5-.7.8-1.1,1-.3.1-.6.1-1,0-1.1-.2-1.5-.9-1-2.1.3-.8.9-1.7,1.8-2.6.9-1,1.9-1.9,3.1-2.7-.1.9-.2,1.7-.4,2.4ZM181.4,15.3c.3-.2.6-.4,1-.6s.6-.2.7-.2c0,.2,0,.4-.3.7-.2.3-.7.9-1.6,1.8-.1,0-.2-.1-.4-.2-.3-.4-.1-.8.6-1.4Z"/>
      </g>
    </g>
  </g>
</svg>